<?xml version="1.0" standalone="no"?>
<!DOCTYPE svg PUBLIC "-//W3C//DTD SVG 20010904//EN"
 "http://www.w3.org/TR/2001/REC-SVG-20010904/DTD/svg10.dtd">
<svg version="1.0" xmlns="http://www.w3.org/2000/svg"
 width="260.000000pt" height="260.000000pt" viewBox="0 0 260.000000 260.000000"
 preserveAspectRatio="xMidYMid meet">
<metadata>
Created by potrace 1.14, written by Peter Selinger 2001-2017
</metadata>
<g transform="translate(0.000000,260.000000) scale(0.100000,-0.100000)"
fill="#000000" stroke="none">
<path d="M30 2550 c0 -38 -4 -50 -15 -50 -8 0 -15 -7 -15 -16 0 -11 8 -14 28
-12 26 3 27 6 30 66 2 51 0 62 -13 62 -11 0 -15 -12 -15 -50z"/>
<path d="M82 2538 l3 -63 400 0 400 0 3 63 c2 51 0 62 -13 62 -11 0 -15 -12
-15 -50 l0 -50 -375 0 -375 0 0 50 c0 38 -4 50 -15 50 -13 0 -15 -11 -13 -62z"/>
<path d="M912 2538 l3 -63 400 0 400 0 3 63 c2 51 0 62 -13 62 -11 0 -15 -12
-15 -50 l0 -50 -375 0 -375 0 0 50 c0 38 -4 50 -15 50 -13 0 -15 -11 -13 -62z"/>
<path d="M1742 2538 l3 -63 400 0 400 0 3 63 c2 51 0 62 -13 62 -11 0 -15 -12
-15 -50 l0 -50 -375 0 -375 0 0 50 c0 38 -4 50 -15 50 -13 0 -15 -11 -13 -62z"/>
<path d="M2572 2538 c2 -38 8 -63 16 -66 9 -3 12 14 12 62 0 53 -3 66 -15 66
-13 0 -15 -11 -13 -62z"/>
<path d="M0 2425 c0 -13 30 -15 220 -15 l220 0 0 -85 0 -85 -220 0 c-190 0
-220 -2 -220 -15 0 -13 30 -15 233 -13 l232 3 0 110 0 110 -232 3 c-203 2
-233 0 -233 -13z"/>
<path d="M494 2427 c-2 -7 -3 -58 -2 -113 l3 -99 400 0 400 0 0 110 0 110
-398 3 c-324 2 -398 0 -403 -11z m776 -102 l0 -85 -375 0 -375 0 0 85 0 85
375 0 375 0 0 -85z"/>
<path d="M1324 2427 c-2 -7 -3 -58 -2 -113 l3 -99 400 0 400 0 0 110 0 110
-398 3 c-324 2 -398 0 -403 -11z m776 -102 l0 -85 -375 0 -375 0 0 85 0 85
375 0 375 0 0 -85z"/>
<path d="M2164 2427 c-2 -7 -3 -58 -2 -113 l3 -99 218 -3 c189 -2 217 0 217
13 0 13 -28 15 -205 15 l-205 0 0 85 0 85 205 0 c176 0 205 2 205 15 0 13 -31
15 -215 15 -170 0 -217 -3 -221 -13z"/>
<path d="M0 2166 c0 -9 7 -16 15 -16 12 0 15 -16 15 -85 0 -69 -3 -85 -15 -85
-8 0 -15 -7 -15 -16 0 -11 8 -14 28 -12 l27 3 0 110 0 110 -27 3 c-20 2 -28
-1 -28 -12z"/>
<path d="M84 2167 c-2 -7 -3 -58 -2 -113 l3 -99 400 0 400 0 0 110 0 110 -398
3 c-324 2 -398 0 -403 -11z m776 -102 l0 -85 -375 0 -375 0 0 85 0 85 375 0
375 0 0 -85z"/>
<path d="M914 2167 c-2 -7 -3 -58 -2 -113 l3 -99 400 0 400 0 0 110 0 110
-398 3 c-324 2 -398 0 -403 -11z m776 -102 l0 -85 -375 0 -375 0 0 85 0 85
375 0 375 0 0 -85z"/>
<path d="M1744 2167 c-2 -7 -3 -58 -2 -113 l3 -99 400 0 400 0 0 110 0 110
-398 3 c-324 2 -398 0 -403 -11z m776 -102 l0 -85 -375 0 -375 0 0 85 0 85
375 0 375 0 0 -85z"/>
<path d="M2574 2167 c-10 -28 1 -210 14 -215 9 -3 12 24 12 112 0 73 -4 116
-10 116 -6 0 -13 -6 -16 -13z"/>
<path d="M0 1905 c0 -13 30 -15 220 -15 l220 0 0 -85 0 -85 -220 0 c-190 0
-220 -2 -220 -15 0 -13 30 -15 233 -13 l232 3 0 110 0 110 -232 3 c-203 2
-233 0 -233 -13z"/>
<path d="M494 1907 c-2 -7 -3 -58 -2 -113 l3 -99 400 0 400 0 0 110 0 110
-398 3 c-324 2 -398 0 -403 -11z m776 -102 l0 -85 -375 0 -375 0 0 85 0 85
375 0 375 0 0 -85z"/>
<path d="M1324 1907 c-2 -7 -3 -58 -2 -113 l3 -99 400 0 400 0 0 110 0 110
-398 3 c-324 2 -398 0 -403 -11z m776 -102 l0 -85 -375 0 -375 0 0 85 0 85
375 0 375 0 0 -85z"/>
<path d="M2164 1907 c-2 -7 -3 -58 -2 -113 l3 -99 218 -3 c189 -2 217 0 217
13 0 13 -28 15 -205 15 l-205 0 0 85 0 85 205 0 c176 0 205 2 205 15 0 13 -31
15 -215 15 -170 0 -217 -3 -221 -13z"/>
<path d="M0 1646 c0 -9 7 -16 15 -16 12 0 15 -16 15 -85 0 -69 -3 -85 -15 -85
-8 0 -15 -7 -15 -16 0 -11 8 -14 28 -12 l27 3 0 110 0 110 -27 3 c-20 2 -28
-1 -28 -12z"/>
<path d="M84 1647 c-2 -7 -3 -58 -2 -113 l3 -99 400 0 400 0 0 110 0 110 -398
3 c-324 2 -398 0 -403 -11z m776 -102 l0 -85 -375 0 -375 0 0 85 0 85 375 0
375 0 0 -85z"/>
<path d="M914 1647 c-2 -7 -3 -58 -2 -113 l3 -99 400 0 400 0 0 110 0 110
-398 3 c-324 2 -398 0 -403 -11z m776 -102 l0 -85 -375 0 -375 0 0 85 0 85
375 0 375 0 0 -85z"/>
<path d="M1744 1647 c-2 -7 -3 -58 -2 -113 l3 -99 400 0 400 0 0 110 0 110
-398 3 c-324 2 -398 0 -403 -11z m776 -102 l0 -85 -375 0 -375 0 0 85 0 85
375 0 375 0 0 -85z"/>
<path d="M2574 1647 c-10 -28 1 -210 14 -215 9 -3 12 24 12 112 0 73 -4 116
-10 116 -6 0 -13 -6 -16 -13z"/>
<path d="M0 1385 c0 -13 30 -15 220 -15 l220 0 0 -85 0 -85 -220 0 c-190 0
-220 -2 -220 -15 0 -13 30 -15 233 -13 l232 3 0 110 0 110 -232 3 c-203 2
-233 0 -233 -13z"/>
<path d="M494 1387 c-2 -7 -3 -58 -2 -113 l3 -99 400 0 400 0 0 110 0 110
-398 3 c-324 2 -398 0 -403 -11z m776 -102 l0 -85 -375 0 -375 0 0 85 0 85
375 0 375 0 0 -85z"/>
<path d="M1324 1387 c-2 -7 -3 -58 -2 -113 l3 -99 400 0 400 0 0 110 0 110
-398 3 c-324 2 -398 0 -403 -11z m776 -102 l0 -85 -375 0 -375 0 0 85 0 85
375 0 375 0 0 -85z"/>
<path d="M2164 1387 c-2 -7 -3 -58 -2 -113 l3 -99 218 -3 c189 -2 217 0 217
13 0 13 -28 15 -205 15 l-205 0 0 85 0 85 205 0 c176 0 205 2 205 15 0 13 -31
15 -215 15 -170 0 -217 -3 -221 -13z"/>
<path d="M0 1126 c0 -9 7 -16 15 -16 12 0 15 -16 15 -85 0 -69 -3 -85 -15 -85
-8 0 -15 -7 -15 -16 0 -11 8 -14 28 -12 l27 3 0 110 0 110 -27 3 c-20 2 -28
-1 -28 -12z"/>
<path d="M84 1127 c-2 -7 -3 -58 -2 -113 l3 -99 400 0 400 0 0 110 0 110 -398
3 c-324 2 -398 0 -403 -11z m776 -102 l0 -85 -375 0 -375 0 0 85 0 85 375 0
375 0 0 -85z"/>
<path d="M914 1127 c-2 -7 -3 -58 -2 -113 l3 -99 400 0 400 0 0 110 0 110
-398 3 c-324 2 -398 0 -403 -11z m776 -102 l0 -85 -375 0 -375 0 0 85 0 85
375 0 375 0 0 -85z"/>
<path d="M1744 1127 c-2 -7 -3 -58 -2 -113 l3 -99 400 0 400 0 0 110 0 110
-398 3 c-324 2 -398 0 -403 -11z m776 -102 l0 -85 -375 0 -375 0 0 85 0 85
375 0 375 0 0 -85z"/>
<path d="M2574 1127 c-10 -28 1 -210 14 -215 9 -3 12 24 12 112 0 73 -4 116
-10 116 -6 0 -13 -6 -16 -13z"/>
<path d="M0 865 c0 -13 30 -15 220 -15 l220 0 0 -85 0 -85 -220 0 c-190 0
-220 -2 -220 -15 0 -13 30 -15 233 -13 l232 3 0 110 0 110 -232 3 c-203 2
-233 0 -233 -13z"/>
<path d="M494 867 c-2 -7 -3 -58 -2 -113 l3 -99 400 0 400 0 0 110 0 110 -398
3 c-324 2 -398 0 -403 -11z m776 -102 l0 -85 -375 0 -375 0 0 85 0 85 375 0
375 0 0 -85z"/>
<path d="M1324 867 c-2 -7 -3 -58 -2 -113 l3 -99 400 0 400 0 0 110 0 110
-398 3 c-324 2 -398 0 -403 -11z m776 -102 l0 -85 -375 0 -375 0 0 85 0 85
375 0 375 0 0 -85z"/>
<path d="M2164 867 c-2 -7 -3 -58 -2 -113 l3 -99 218 -3 c189 -2 217 0 217 13
0 13 -28 15 -205 15 l-205 0 0 85 0 85 205 0 c176 0 205 2 205 15 0 13 -31 15
-215 15 -170 0 -217 -3 -221 -13z"/>
<path d="M0 606 c0 -9 7 -16 15 -16 12 0 15 -16 15 -85 0 -69 -3 -85 -15 -85
-8 0 -15 -7 -15 -16 0 -11 8 -14 28 -12 l27 3 0 110 0 110 -27 3 c-20 2 -28
-1 -28 -12z"/>
<path d="M84 607 c-2 -7 -3 -58 -2 -113 l3 -99 400 0 400 0 0 110 0 110 -398
3 c-324 2 -398 0 -403 -11z m776 -102 l0 -85 -375 0 -375 0 0 85 0 85 375 0
375 0 0 -85z"/>
<path d="M914 607 c-2 -7 -3 -58 -2 -113 l3 -99 400 0 400 0 0 110 0 110 -398
3 c-324 2 -398 0 -403 -11z m776 -102 l0 -85 -375 0 -375 0 0 85 0 85 375 0
375 0 0 -85z"/>
<path d="M1744 607 c-2 -7 -3 -58 -2 -113 l3 -99 400 0 400 0 0 110 0 110
-398 3 c-324 2 -398 0 -403 -11z m776 -102 l0 -85 -375 0 -375 0 0 85 0 85
375 0 375 0 0 -85z"/>
<path d="M2574 607 c-10 -28 1 -210 14 -215 9 -3 12 24 12 112 0 73 -4 116
-10 116 -6 0 -13 -6 -16 -13z"/>
<path d="M0 345 c0 -13 30 -15 220 -15 l220 0 0 -85 0 -85 -220 0 c-190 0
-220 -2 -220 -15 0 -13 30 -15 233 -13 l232 3 0 110 0 110 -232 3 c-203 2
-233 0 -233 -13z"/>
<path d="M494 347 c-2 -7 -3 -58 -2 -113 l3 -99 400 0 400 0 0 110 0 110 -398
3 c-324 2 -398 0 -403 -11z m776 -102 l0 -85 -375 0 -375 0 0 85 0 85 375 0
375 0 0 -85z"/>
<path d="M1324 347 c-2 -7 -3 -58 -2 -113 l3 -99 400 0 400 0 0 110 0 110
-398 3 c-324 2 -398 0 -403 -11z m776 -102 l0 -85 -375 0 -375 0 0 85 0 85
375 0 375 0 0 -85z"/>
<path d="M2164 347 c-2 -7 -3 -58 -2 -113 l3 -99 218 -3 c189 -2 217 0 217 13
0 13 -28 15 -205 15 l-205 0 0 85 0 85 205 0 c176 0 205 2 205 15 0 13 -31 15
-215 15 -170 0 -217 -3 -221 -13z"/>
<path d="M0 86 c0 -9 7 -16 15 -16 10 0 15 -11 15 -35 0 -25 4 -35 16 -35 12
0 14 10 12 48 -3 43 -5 47 -30 50 -20 2 -28 -1 -28 -12z"/>
<path d="M87 93 c-4 -3 -7 -26 -7 -50 0 -32 4 -43 15 -43 10 0 15 11 15 35 l0
35 375 0 375 0 0 -35 c0 -25 4 -35 16 -35 12 0 14 10 12 48 l-3 47 -396 3
c-217 1 -398 -1 -402 -5z"/>
<path d="M917 93 c-4 -3 -7 -26 -7 -50 0 -32 4 -43 15 -43 10 0 15 11 15 35
l0 35 375 0 375 0 0 -35 c0 -25 4 -35 16 -35 12 0 14 10 12 48 l-3 47 -396 3
c-217 1 -398 -1 -402 -5z"/>
<path d="M1747 93 c-4 -3 -7 -26 -7 -50 0 -32 4 -43 15 -43 10 0 15 11 15 35
l0 35 375 0 375 0 0 -35 c0 -25 4 -35 16 -35 12 0 14 10 12 48 l-3 47 -396 3
c-217 1 -398 -1 -402 -5z"/>
<path d="M2577 93 c-4 -3 -7 -26 -7 -50 0 -32 4 -43 15 -43 11 0 15 12 15 50
0 46 -7 60 -23 43z"/>
</g>
</svg>
